<svg xmlns="http://www.w3.org/2000/svg" width="1200" height="300" viewBox="0 0 1200 300" role="img" aria-labelledby="title desc">
  <title id="title">GitHub achievement quest log</title><desc id="desc">Pixel quest cards separating achievements already visible on the profile from authentic next goals.</desc>
  <defs><linearGradient id="bg" x1="0" y1="0" x2="1" y2="1"><stop stop-color="#080D1B"/><stop offset="1" stop-color="#21113C"/></linearGradient><style>.p{shape-rendering:crispEdges}.f{font-family:'Courier New',Consolas,monospace}.glow{animation:glow 2.2s steps(2,end) infinite}@keyframes glow{50%{opacity:.6}}@media(prefers-reduced-motion:reduce){.glow{animation:none}}</style></defs>
  <g class="p"><rect width="1200" height="300" rx="14" fill="url(#bg)"/><rect x="2" y="2" width="1196" height="296" rx="12" fill="none" stroke="#334155" stroke-width="4"/>
    <text x="30" y="42" class="f" font-size="19" font-weight="900" fill="#FACC15">ACHIEVEMENT QUEST LOG</text><text x="868" y="42" class="f" font-size="12" fill="#CBD5E1">REAL EVENTS UNLOCK REAL BADGES</text>
    <text x="34" y="76" class="f" font-size="13" font-weight="700" fill="#4ADE80">VISIBLE ON PROFILE</text><text x="516" y="76" class="f" font-size="13" font-weight="700" fill="#C084FC">NEXT AUTHENTIC QUESTS</text>
    <g class="f" text-anchor="middle" font-weight="900">
      <g transform="translate(34 94)"><rect width="210" height="150" fill="#10243D" stroke="#22D3EE" stroke-width="3"/><path d="M62 56h86l-16 20H78Z" fill="#22D3EE"/><rect x="95" y="32" width="20" height="24" fill="#67E8F9"/><rect x="80" y="42" width="12" height="10" fill="#A5F3FC"/><text x="105" y="108" font-size="14" fill="#CFFAFE">PULL SHARK</text><text x="105" y="131" font-size="17" fill="#FACC15">x3</text><text x="105" y="146" font-size="10" fill="#67E8F9">UNLOCKED</text></g>
      <g transform="translate(262 94)"><rect width="210" height="150" fill="#35204D" stroke="#D946EF" stroke-width="3"/><path d="M75 34h60v12h13v34H62V46h13Z" fill="#A855F7"/><rect x="76" y="49" width="13" height="13" fill="#F5D0FE"/><rect x="121" y="49" width="13" height="13" fill="#F5D0FE"/><text x="105" y="111" font-size="15" fill="#FAE8FF">YOLO</text><text x="105" y="132" font-size="11" fill="#E9D5FF">MERGED BOLDLY</text><text x="105" y="146" font-size="10" fill="#F0ABFC">UNLOCKED</text></g>
      <g transform="translate(516 94)"><rect width="204" height="150" fill="#17152A" stroke="#7C3AED" stroke-width="3" stroke-dasharray="8 6"/><rect x="78" y="34" width="48" height="42" fill="#6D28D9"/><rect x="67" y="46" width="70" height="18" fill="#8B5CF6"/><text x="102" y="109" font-size="13" fill="#DDD6FE">GALAXY BRAIN</text><text x="102" y="131" font-size="10" fill="#C4B5FD">HELPFUL ANSWERS</text><text x="102" y="146" font-size="10" fill="#A78BFA">LOCKED</text></g>
      <g transform="translate(738 94)"><rect width="204" height="150" fill="#17152A" stroke="#0891B2" stroke-width="3" stroke-dasharray="8 6"/><path d="M72 46h30v16H72c-20 0-20-28 0-28h21M132 46h-30v16h30c20 0 20-28 0-28h-21" fill="none" stroke="#22D3EE" stroke-width="8"/><text x="102" y="109" font-size="13" fill="#CFFAFE">PAIR EXTRA</text><text x="102" y="131" font-size="10" fill="#A5F3FC">REAL CO-AUTHORS</text><text x="102" y="146" font-size="10" fill="#67E8F9">LOCKED</text></g>
      <g transform="translate(960 94)"><rect width="204" height="150" fill="#17152A" stroke="#F59E0B" stroke-width="3" stroke-dasharray="8 6"/><path d="m102 28 10 22 24 2-18 16 6 24-22-12-22 12 6-24-18-16 24-2Z" fill="#FACC15" class="glow"/><text x="102" y="109" font-size="13" fill="#FEF3C7">STARSTRUCK</text><text x="102" y="131" font-size="10" fill="#FDE68A">USEFUL PUBLIC WORK</text><text x="102" y="146" font-size="10" fill="#D97706">LOCKED</text></g>
    </g>
    <text x="600" y="278" text-anchor="middle" class="f" font-size="10" fill="#64748B">PIXEL QUEST UI — OFFICIAL ACHIEVEMENTS STAY IN THE GITHUB SIDEBAR</text>
  </g>
</svg>
